<svg xmlns="http://www.w3.org/2000/svg" width="33.078" height="31.325" viewBox="0 0 33.078 31.325">
  <g id="Group_114" data-name="Group 114" transform="translate(-48.871 -677.175)">
    <g id="Group_94" data-name="Group 94" transform="translate(415.236 378.849)">
      <path id="Path_914" data-name="Path 914" d="M-333.287,304.309a2.946,2.946,0,0,0-2.942-2.942h-2.894v-2.318a.723.723,0,0,0-.723-.723h-3.736a.723.723,0,0,0-.723.723v2.318h-11.042v-2.318a.723.723,0,0,0-.723-.723h-3.736a.723.723,0,0,0-.723.723v2.318h-2.894a2.946,2.946,0,0,0-2.942,2.942l0,22.4a2.946,2.946,0,0,0,2.942,2.942h22.426a.725.725,0,0,0,.511-.212l6.982-6.982a.749.749,0,0,0,.2-.466C-333.3,321.976-333.287,304.309-333.287,304.309Zm-9.572-4.537h2.29v4.694h-2.29Zm-16.223,0h2.29v4.694h-2.29Zm-4.34,3.041h2.894v2.377a.723.723,0,0,0,.723.723h3.736a.723.723,0,0,0,.723-.723v-2.377H-344.3v2.377a.723.723,0,0,0,.723.723h3.736a.723.723,0,0,0,.723-.723v-2.377h2.894a1.5,1.5,0,0,1,1.5,1.5v3.573h-30.187v-3.573A1.5,1.5,0,0,1-363.423,302.812Zm-1.494,23.9V309.33h30.181v11.894h-4.04a2.946,2.946,0,0,0-2.942,2.942v4.04h-21.7A1.5,1.5,0,0,1-364.917,326.709Zm24.645.474v-3.018a1.5,1.5,0,0,1,1.5-1.5h3.018Z"/>
    </g>
    <path id="Icon_awesome-eye" data-name="Icon awesome-eye" d="M13.8,8.776A7.731,7.731,0,0,0,6.942,4.5,7.732,7.732,0,0,0,.084,8.776a.78.78,0,0,0,0,.7,7.731,7.731,0,0,0,6.858,4.276A7.732,7.732,0,0,0,13.8,9.48.78.78,0,0,0,13.8,8.776ZM6.942,12.6a3.471,3.471,0,1,1,3.471-3.471A3.471,3.471,0,0,1,6.942,12.6Zm0-5.785a2.3,2.3,0,0,0-.61.091A1.153,1.153,0,0,1,4.719,8.518a2.309,2.309,0,1,0,2.223-1.7Z" transform="translate(57.456 688.338)"/>
  </g>
</svg>
